<svg width="1090" height="291" viewBox="0 0 1090 291" fill="none" xmlns="http://www.w3.org/2000/svg">
<path d="M23.3382 251.691V39.2622H54.352V118.197H56.219C58.0169 114.878 60.6101 111.04 63.9984 106.684C67.3868 102.327 72.089 98.5239 78.1051 95.2738C84.1211 91.9546 92.0734 90.295 101.962 90.295C114.824 90.295 126.303 93.5451 136.399 100.045C146.495 106.545 154.412 115.915 160.152 128.155C165.96 140.394 168.865 155.123 168.865 172.342C168.865 189.56 165.995 204.324 160.255 216.632C154.516 228.872 146.633 238.311 136.606 244.949C126.579 251.519 115.135 254.803 102.273 254.803C92.592 254.803 84.6743 253.178 78.52 249.928C72.4347 246.678 67.6634 242.875 64.2059 238.518C60.7484 234.162 58.0861 230.289 56.219 226.901H53.6259V251.691H23.3382ZM53.7296 172.03C53.7296 183.233 55.3547 193.052 58.6047 201.488C61.8548 209.925 66.557 216.529 72.7114 221.3C78.8657 226.002 86.4031 228.353 95.3234 228.353C104.59 228.353 112.334 225.898 118.558 220.989C124.781 216.01 129.484 209.268 132.664 200.762C135.915 192.257 137.54 182.68 137.54 172.03C137.54 161.52 135.949 152.081 132.768 143.713C129.656 135.346 124.954 128.742 118.662 123.902C112.438 119.061 104.659 116.641 95.3234 116.641C86.3339 116.641 78.7274 118.958 72.5039 123.591C66.3495 128.224 61.6819 134.689 58.501 142.987C55.3201 151.285 53.7296 160.966 53.7296 172.03ZM290.01 185.618V92.3695H321.128V251.691H290.633V224.101H288.973C285.308 232.606 279.43 239.694 271.34 245.364C263.318 250.965 253.326 253.766 241.363 253.766C231.129 253.766 222.07 251.519 214.187 247.024C206.373 242.46 200.219 235.718 195.724 226.797C191.299 217.877 189.086 206.848 189.086 193.709V92.3695H220.1V189.975C220.1 200.831 223.108 209.475 229.124 215.906C235.14 222.337 242.954 225.553 252.566 225.553C258.374 225.553 264.148 224.101 269.888 221.196C275.696 218.292 280.502 213.901 284.306 208.023C288.178 202.145 290.08 194.677 290.01 185.618ZM348.195 251.691V92.3695H379.209V251.691H348.195ZM363.858 67.7867C358.464 67.7867 353.831 65.9888 349.958 62.393C346.155 58.728 344.253 54.3715 344.253 49.3236C344.253 44.2065 346.155 39.85 349.958 36.2542C353.831 32.5893 358.464 30.7568 363.858 30.7568C369.251 30.7568 373.85 32.5893 377.653 36.2542C381.525 39.85 383.462 44.2065 383.462 49.3236C383.462 54.3715 381.525 58.728 377.653 62.393C373.85 65.9888 369.251 67.7867 363.858 67.7867ZM465.97 254.803C453.108 254.803 441.629 251.519 431.533 244.949C421.506 238.311 413.623 228.872 407.884 216.632C402.213 204.324 399.378 189.56 399.378 172.342C399.378 155.123 402.248 140.394 407.987 128.155C413.796 115.915 421.748 106.545 431.844 100.045C441.94 93.5451 453.384 90.295 466.177 90.295C476.066 90.295 484.018 91.9546 490.034 95.2738C496.119 98.5239 500.821 102.327 504.141 106.684C507.529 111.04 510.157 114.878 512.024 118.197H513.891V39.2622H544.905V251.691H514.617V226.901H512.024C510.157 230.289 507.46 234.162 503.933 238.518C500.476 242.875 495.704 246.678 489.619 249.928C483.534 253.178 475.651 254.803 465.97 254.803ZM472.816 228.353C481.736 228.353 489.273 226.002 495.428 221.3C501.651 216.529 506.353 209.925 509.534 201.488C512.784 193.052 514.409 183.233 514.409 172.03C514.409 160.966 512.819 151.285 509.638 142.987C506.457 134.689 501.79 128.224 495.635 123.591C489.481 118.958 481.874 116.641 472.816 116.641C463.48 116.641 455.701 119.061 449.477 123.902C443.254 128.742 438.552 135.346 435.371 143.713C432.259 152.081 430.703 161.52 430.703 172.03C430.703 182.68 432.294 192.257 435.475 200.762C438.655 209.268 443.358 216.01 449.581 220.989C455.874 225.898 463.619 228.353 472.816 228.353ZM605.579 39.2622V251.691H574.565V39.2622H605.579ZM701.364 254.907C685.667 254.907 672.148 251.553 660.807 244.846C649.536 238.069 640.823 228.561 634.668 216.321C628.583 204.012 625.541 189.595 625.541 173.068C625.541 156.748 628.583 142.365 634.668 129.918C640.823 117.471 649.397 107.755 660.392 100.771C671.456 93.7871 684.387 90.295 699.185 90.295C708.175 90.295 716.888 91.7818 725.324 94.7552C733.761 97.7287 741.332 102.396 748.04 108.758C754.748 115.12 760.038 123.383 763.91 133.548C767.782 143.644 769.719 155.918 769.719 170.371V181.366H643.07V158.131H739.327C739.327 149.972 737.668 142.745 734.348 136.453C731.029 130.091 726.361 125.078 720.345 121.413C714.398 117.748 707.414 115.915 699.393 115.915C690.68 115.915 683.073 118.059 676.573 122.346C670.142 126.564 665.164 132.096 661.637 138.942C658.179 145.719 656.451 153.083 656.451 161.036V179.188C656.451 189.837 658.318 198.895 662.052 206.364C665.855 213.832 671.145 219.537 677.922 223.478C684.699 227.351 692.616 229.287 701.675 229.287C707.553 229.287 712.912 228.457 717.752 226.797C722.593 225.069 726.776 222.51 730.303 219.122C733.83 215.733 736.527 211.55 738.394 206.571L767.748 211.861C765.397 220.505 761.179 228.077 755.093 234.577C749.077 241.008 741.505 246.021 732.378 249.617C723.319 253.144 712.981 254.907 701.364 254.907ZM789.525 251.691V92.3695H819.501V117.678H821.161C824.065 109.104 829.183 102.362 836.512 97.4521C843.911 92.4733 852.279 89.9839 861.614 89.9839C863.55 89.9839 865.832 90.053 868.46 90.1913C871.157 90.3296 873.266 90.5025 874.787 90.7099V120.375C873.542 120.03 871.329 119.649 868.149 119.234C864.968 118.75 861.787 118.508 858.606 118.508C851.276 118.508 844.741 120.064 839.002 123.176C833.332 126.219 828.837 130.471 825.518 135.934C822.198 141.328 820.539 147.482 820.539 154.397V251.691H789.525ZM1006.41 131.266L978.3 136.245C977.124 132.649 975.257 129.227 972.698 125.976C970.209 122.726 966.821 120.064 962.533 117.99C958.246 115.915 952.887 114.878 946.456 114.878C937.674 114.878 930.344 116.849 924.466 120.79C918.588 124.663 915.65 129.676 915.65 135.83C915.65 141.155 917.62 145.442 921.562 148.692C925.503 151.942 931.865 154.605 940.647 156.679L965.956 162.488C980.616 165.876 991.542 171.097 998.733 178.15C1005.92 185.204 1009.52 194.366 1009.52 205.637C1009.52 215.18 1006.75 223.686 1001.22 231.154C995.76 238.553 988.119 244.361 978.3 248.58C968.549 252.798 957.243 254.907 944.381 254.907C926.541 254.907 911.985 251.104 900.713 243.497C889.442 235.821 882.527 224.93 879.968 210.824L909.945 206.26C911.812 214.074 915.65 219.986 921.458 223.997C927.267 227.938 934.839 229.909 944.174 229.909C954.339 229.909 962.464 227.8 968.549 223.582C974.635 219.295 977.677 214.074 977.677 207.919C977.677 202.941 975.81 198.757 972.076 195.369C968.411 191.98 962.775 189.422 955.169 187.693L928.2 181.781C913.333 178.392 902.338 172.999 895.216 165.6C888.162 158.2 884.636 148.831 884.636 137.49C884.636 128.086 887.263 119.857 892.519 112.803C897.774 105.75 905.035 100.253 914.301 96.3111C923.567 92.3004 934.182 90.295 946.145 90.295C963.363 90.295 976.917 94.0291 986.805 101.497C996.693 108.896 1003.23 118.819 1006.41 131.266Z" fill="#F1E65D"/>
<rect x="956.719" y="290.973" width="290.97" height="132.558" transform="rotate(-90 956.719 290.973)" fill="#F1E65D"/>
</svg>
