<svg width="196" height="252" viewBox="0 0 196 252" fill="none" xmlns="http://www.w3.org/2000/svg">
<rect x="80.6953" y="251.434" width="251.432" height="114.543" transform="rotate(-90 80.6953 251.434)" fill="#F1E65D"/>
<path d="M0 217.715V34.1523H26.7989V102.361H28.4122C29.9658 99.4929 32.2065 96.1766 35.1344 92.4121C38.0623 88.6476 42.1254 85.3612 47.3239 82.5528C52.5223 79.6846 59.3938 78.2505 67.9384 78.2505C79.0524 78.2505 88.9713 81.0589 97.6951 86.6758C106.419 92.2926 113.261 100.389 118.22 110.966C123.239 121.542 125.749 134.27 125.749 149.148C125.749 164.027 123.269 176.784 118.31 187.42C113.35 197.997 106.538 206.153 97.8744 211.889C89.2103 217.566 79.3213 220.404 68.2073 220.404C59.842 220.404 53.0003 219 47.6824 216.192C42.4242 213.383 38.3013 210.097 35.3136 206.332C32.326 202.568 30.0256 199.222 28.4122 196.294H26.1715V217.715H0ZM26.2612 148.879C26.2612 158.559 27.6653 167.044 30.4737 174.334C33.2821 181.624 37.3452 187.331 42.6632 191.454C47.9811 195.517 54.4941 197.549 62.2022 197.549C70.209 197.549 76.9013 195.427 82.279 191.185C87.6567 186.883 91.7199 181.057 94.4685 173.707C97.2768 166.357 98.681 158.081 98.681 148.879C98.681 139.797 97.3067 131.64 94.5581 124.41C91.8693 117.18 87.8061 111.474 82.3686 107.291C76.9909 103.108 70.2688 101.017 62.2022 101.017C54.4344 101.017 47.8616 103.018 42.4839 107.022C37.166 111.025 33.1327 116.612 30.3841 123.783C27.6355 130.953 26.2612 139.319 26.2612 148.879Z" fill="#F1E65D"/>
</svg>
